<svg version="1.1" id="Layer_1" xmlns="http://www.w3.org/2000/svg" xmlns:xlink="http://www.w3.org/1999/xlink" x="0px" y="0px"
	 width="100%" viewBox="0 0 300 300" enable-background="new 0 0 300 300" xml:space="preserve">
<path fill="#FFFFFF" opacity="1.000000" stroke="none" 
	d="
M196.000000,301.000000 
	C130.666672,301.000000 65.833359,301.000000 1.000026,301.000000 
	C1.000017,201.000031 1.000017,101.000061 1.000009,1.000066 
	C100.999947,1.000044 200.999893,1.000044 300.999878,1.000022 
	C300.999939,100.999939 300.999939,200.999878 300.999969,300.999908 
	C266.166656,301.000000 231.333328,301.000000 196.000000,301.000000 
M213.133926,105.811172 
	C218.850586,114.146980 218.850586,114.146980 223.267654,113.051361 
	C216.013123,107.322678 215.426620,101.382133 223.875549,95.240494 
	C216.575531,94.480423 215.708496,99.876678 212.241013,102.525200 
	C212.127975,100.879028 212.238510,99.173058 211.820114,97.608559 
	C211.559006,96.632317 210.499573,95.869598 209.798386,95.011055 
	C209.201721,95.803154 208.115936,96.578880 208.088791,97.390038 
	C207.927826,102.201881 207.926819,107.025078 208.103912,111.835915 
	C208.131195,112.576996 209.356110,113.274002 210.027130,113.991379 
	C210.649231,113.221359 211.601181,112.537056 211.827988,111.664322 
	C212.379501,109.542015 212.594299,107.332199 213.133926,105.811172 
M59.154861,136.342346 
	C70.664879,147.152695 81.177162,158.634796 85.316307,174.518311 
	C85.557167,175.442566 86.679802,176.137054 87.392082,176.938461 
	C88.169281,176.035141 89.208450,175.250229 89.679367,174.208450 
	C91.998619,169.077759 93.304352,163.236710 96.574997,158.842682 
	C102.701889,150.611389 109.344109,142.570084 116.829796,135.583084 
	C133.705719,119.831459 132.109222,91.472969 119.376488,77.626793 
	C99.603630,56.124851 66.067818,58.348331 50.688698,84.565926 
	C40.030491,102.735535 43.262871,120.172356 59.154861,136.342346 
M195.448975,94.962189 
	C194.027863,95.069389 192.606750,95.176590 190.931458,95.302963 
	C190.931458,100.847778 190.841156,105.973358 191.010574,111.090340 
	C191.042984,112.069008 192.098892,113.013802 192.682602,113.974228 
	C193.371582,113.099792 194.358444,112.320518 194.675690,111.327339 
	C195.091690,110.024986 194.979477,108.553894 195.094467,107.155380 
	C195.587677,106.921684 196.080902,106.687981 196.574112,106.454285 
	C197.710983,107.939331 198.732544,109.534660 200.017532,110.878029 
	C201.269714,112.187111 202.791321,113.238472 204.194641,114.403000 
	C204.550522,113.995178 204.906387,113.587357 205.262268,113.179535 
	C204.183273,110.967438 203.104279,108.755341 202.025284,106.543243 
	C202.435974,106.558716 202.846664,106.574181 203.257370,106.589653 
	C203.565399,103.726906 204.997086,100.236214 203.851303,98.185921 
	C202.799667,96.304123 198.969345,95.975159 195.448975,94.962189 
M243.110870,113.757133 
	C243.931656,112.203751 244.752441,110.650360 245.494461,109.246033 
	C247.746307,109.246033 249.705704,109.246033 250.449402,109.246033 
	C252.695709,111.436508 254.207611,112.910820 255.719513,114.385139 
	C256.104553,114.025215 256.489594,113.665298 256.874634,113.305374 
	C254.983719,108.010757 253.173157,102.684814 251.131653,97.448914 
	C250.740234,96.445045 249.467331,95.195267 248.551910,95.154152 
	C247.668503,95.114479 246.269073,96.307945 245.879013,97.275284 
	C243.958344,102.038635 242.230087,106.884972 240.648422,111.771454 
	C240.486343,112.272202 241.751907,113.235054 243.110870,113.757133 
M181.844131,95.429100 
	C180.465942,95.816475 178.197586,95.830772 177.853577,96.651573 
	C175.565414,102.111252 173.688873,107.743462 171.133972,114.830009 
	C173.544098,113.716522 174.916214,113.525658 175.486526,112.747322 
	C179.232239,107.635124 181.314789,107.586456 184.715042,112.504799 
	C185.320343,113.380363 186.820618,113.637222 189.173599,114.811615 
	C186.499374,107.571175 184.378265,101.828316 181.844131,95.429100 
M225.414764,95.985199 
	C225.356262,100.945190 225.177582,105.908997 225.335114,110.862114 
	C225.368851,111.922447 226.621307,112.944016 227.312317,113.983444 
	C227.899582,113.026901 228.702347,112.135696 229.017349,111.096619 
	C229.378540,109.905312 229.307037,108.582817 229.432220,107.222435 
	C230.884262,107.149529 232.025284,107.081429 233.167252,107.036850 
	C237.137100,106.881844 239.415314,104.878357 239.340637,100.857140 
	C239.265152,96.791985 236.797531,94.954666 232.880325,94.978783 
	C230.575958,94.992958 228.272583,95.165169 225.414764,95.985199 
M160.891861,109.541374 
	C160.812393,105.693024 163.789963,107.347771 165.564728,107.032341 
	C168.997299,106.422302 170.943253,104.613251 170.958664,101.029922 
	C170.974045,97.451279 169.086563,95.373802 165.614609,95.056038 
	C162.883148,94.806053 160.110550,95.005836 157.019150,95.005836 
	C157.019150,100.635681 156.911835,105.597961 157.098618,110.549141 
	C157.142395,111.709869 158.181183,112.833069 158.762207,113.973526 
	C159.469833,112.789711 160.177444,111.605888 160.891861,109.541374 
M259.016541,111.250320 
	C260.288757,114.519859 266.205048,115.259659 272.076141,111.978882 
	C268.364166,111.344971 265.716705,110.892853 262.884827,110.409233 
	C262.884827,106.033836 263.002686,101.876892 262.794678,97.736305 
	C262.747803,96.802841 261.564972,95.926437 260.905060,95.023758 
	C260.275299,95.953384 259.148407,96.858803 259.101776,97.816818 
	C258.899658,101.967941 259.013062,106.134430 259.016541,111.250320 
z"/>
<path fill="#31B2BD" opacity="1.000000" stroke="none" 
	d="
M58.904507,136.091553 
	C43.262871,120.172356 40.030491,102.735535 50.688698,84.565926 
	C66.067818,58.348331 99.603630,56.124851 119.376488,77.626793 
	C132.109222,91.472969 133.705719,119.831459 116.829796,135.583084 
	C109.344109,142.570084 102.701889,150.611389 96.574997,158.842682 
	C93.304352,163.236710 91.998619,169.077759 89.679367,174.208450 
	C89.208450,175.250229 88.169281,176.035141 87.392082,176.938461 
	C86.679802,176.137054 85.557167,175.442566 85.316307,174.518311 
	C81.177162,158.634796 70.664879,147.152695 58.904507,136.091553 
M107.930382,81.560593 
	C107.805801,81.520294 107.681213,81.480003 107.556633,81.439713 
	C107.666817,81.658798 107.777000,81.877876 108.108635,82.544464 
	C108.315262,82.829536 108.592560,82.998840 108.961182,83.557716 
	C109.112053,83.835861 109.262924,84.114014 109.413795,84.392159 
	C109.291382,83.910187 109.168968,83.428215 108.878769,82.478668 
	C108.704659,82.173447 108.449196,81.970680 107.930382,81.560593 
M106.047943,79.500420 
	C106.186661,79.530701 106.325371,79.560989 106.464088,79.591270 
	C106.362244,79.347610 106.260406,79.103951 105.708466,78.238670 
	C103.151901,77.716873 100.595345,77.195068 98.038780,76.673264 
	C97.954163,77.228844 97.869537,77.784416 97.784920,78.339989 
	C100.465141,78.624802 103.145370,78.909622 106.047943,79.500420 
M54.715115,92.427345 
	C54.296219,92.923401 53.877327,93.419456 52.739780,94.330383 
	C52.559887,95.394974 52.379993,96.459572 52.213722,98.395752 
	C52.179443,102.224754 51.996094,106.059319 52.138874,109.881706 
	C52.564442,121.274788 53.049568,122.788429 66.623932,120.515869 
	C80.412979,120.413307 94.202034,120.310745 108.803993,120.361244 
	C109.288483,120.455818 109.772438,120.629066 110.257553,120.632393 
	C113.844444,120.656982 117.557289,121.151978 120.934052,120.310020 
	C121.826721,120.087440 121.666191,115.708405 122.031708,113.244225 
	C122.100639,112.779465 122.509377,112.349670 122.526268,111.894997 
	C122.710503,106.937241 122.847923,101.977745 122.994247,96.258911 
	C121.095337,93.546692 119.196434,90.834473 117.064659,87.347145 
	C115.366028,87.139442 113.649559,86.679268 111.973969,86.797676 
	C110.413864,86.907921 108.897278,88.027702 107.361565,88.027634 
	C93.605698,88.027016 79.849838,87.876991 66.062866,87.062210 
	C67.985435,80.796394 69.788467,79.405663 76.952263,78.662842 
	C71.865173,76.075462 69.775551,76.540192 66.708672,80.898972 
	C65.118469,83.159050 63.491650,85.393379 61.128555,87.959503 
	C60.691559,88.272537 60.254562,88.585579 59.373341,89.126213 
	C57.914921,90.083282 56.456497,91.040352 54.715115,92.427345 
z"/>
<path fill="#3DB7C1" opacity="1.000000" stroke="none" 
	d="
M195.906128,94.962112 
	C198.969345,95.975159 202.799667,96.304123 203.851303,98.185921 
	C204.997086,100.236214 203.565399,103.726906 203.257370,106.589653 
	C202.846664,106.574181 202.435974,106.558716 202.025284,106.543243 
	C203.104279,108.755341 204.183273,110.967438 205.262268,113.179535 
	C204.906387,113.587357 204.550522,113.995178 204.194641,114.403000 
	C202.791321,113.238472 201.269714,112.187111 200.017532,110.878029 
	C198.732544,109.534660 197.710983,107.939331 196.574112,106.454285 
	C196.080902,106.687981 195.587677,106.921684 195.094467,107.155380 
	C194.979477,108.553894 195.091690,110.024986 194.675690,111.327339 
	C194.358444,112.320518 193.371582,113.099792 192.682602,113.974228 
	C192.098892,113.013802 191.042984,112.069008 191.010574,111.090340 
	C190.841156,105.973358 190.931458,100.847778 190.931458,95.302963 
	C192.606750,95.176590 194.027863,95.069389 195.906128,94.962112 
M200.108231,102.732162 
	C201.048553,98.094193 200.138748,97.395996 194.721298,98.842659 
	C194.801483,100.391449 194.884155,101.988335 194.995789,104.144844 
	C196.752289,103.801712 198.120529,103.534431 200.108231,102.732162 
z"/>
<path fill="#3DB7C1" opacity="1.000000" stroke="none" 
	d="
M242.732941,113.870300 
	C241.751907,113.235054 240.486343,112.272202 240.648422,111.771454 
	C242.230087,106.884972 243.958344,102.038635 245.879013,97.275284 
	C246.269073,96.307945 247.668503,95.114479 248.551910,95.154152 
	C249.467331,95.195267 250.740234,96.445045 251.131653,97.448914 
	C253.173157,102.684814 254.983719,108.010757 256.874634,113.305374 
	C256.489594,113.665298 256.104553,114.025215 255.719513,114.385139 
	C254.207611,112.910820 252.695709,111.436508 250.449402,109.246033 
	C249.705704,109.246033 247.746307,109.246033 245.494461,109.246033 
	C244.752441,110.650360 243.931656,112.203751 242.732941,113.870300 
z"/>
<path fill="#3DB7C1" opacity="1.000000" stroke="none" 
	d="
M182.050644,95.757278 
	C184.378265,101.828316 186.499374,107.571175 189.173599,114.811615 
	C186.820618,113.637222 185.320343,113.380363 184.715042,112.504799 
	C181.314789,107.586456 179.232239,107.635124 175.486526,112.747322 
	C174.916214,113.525658 173.544098,113.716522 171.133972,114.830009 
	C173.688873,107.743462 175.565414,102.111252 177.853577,96.651573 
	C178.197586,95.830772 180.465942,95.816475 182.050644,95.757278 
z"/>
<path fill="#3FB8C2" opacity="1.000000" stroke="none" 
	d="
M225.691757,95.625748 
	C228.272583,95.165169 230.575958,94.992958 232.880325,94.978783 
	C236.797531,94.954666 239.265152,96.791985 239.340637,100.857140 
	C239.415314,104.878357 237.137100,106.881844 233.167252,107.036850 
	C232.025284,107.081429 230.884262,107.149529 229.432220,107.222435 
	C229.307037,108.582817 229.378540,109.905312 229.017349,111.096619 
	C228.702347,112.135696 227.899582,113.026901 227.312317,113.983444 
	C226.621307,112.944016 225.368851,111.922447 225.335114,110.862114 
	C225.177582,105.908997 225.356262,100.945190 225.691757,95.625748 
M234.381378,98.603966 
	C232.720749,98.421211 231.060104,98.238457 229.269226,98.041367 
	C229.269226,100.301720 229.269226,101.893501 229.269226,103.448807 
	C235.012421,104.356598 235.548035,103.931999 234.381378,98.603966 
z"/>
<path fill="#3DB7C1" opacity="1.000000" stroke="none" 
	d="
M160.888458,109.981720 
	C160.177444,111.605888 159.469833,112.789711 158.762207,113.973526 
	C158.181183,112.833069 157.142395,111.709869 157.098618,110.549141 
	C156.911835,105.597961 157.019150,100.635681 157.019150,95.005836 
	C160.110550,95.005836 162.883148,94.806053 165.614609,95.056038 
	C169.086563,95.373802 170.974045,97.451279 170.958664,101.029922 
	C170.943253,104.613251 168.997299,106.422302 165.564728,107.032341 
	C163.789963,107.347771 160.812393,105.693024 160.888458,109.981720 
M160.891663,101.437469 
	C162.071091,102.274979 163.205521,103.650528 164.446320,103.754280 
	C165.228363,103.819679 166.848602,101.981758 166.848175,100.998184 
	C166.847733,100.015900 165.224884,98.182396 164.441010,98.248009 
	C163.201782,98.351730 162.069138,99.728813 160.891663,101.437469 
z"/>
<path fill="#3FB8C2" opacity="1.000000" stroke="none" 
	d="
M259.014099,110.772827 
	C259.013062,106.134430 258.899658,101.967941 259.101776,97.816818 
	C259.148407,96.858803 260.275299,95.953384 260.905060,95.023758 
	C261.564972,95.926437 262.747803,96.802841 262.794678,97.736305 
	C263.002686,101.876892 262.884827,106.033836 262.884827,110.409233 
	C265.716705,110.892853 268.364166,111.344971 272.076141,111.978882 
	C266.205048,115.259659 260.288757,114.519859 259.014099,110.772827 
z"/>
<path fill="#3DB7C1" opacity="1.000000" stroke="none" 
	d="
M212.967834,102.906845 
	C215.708496,99.876678 216.575531,94.480423 223.875549,95.240494 
	C215.426620,101.382133 216.013123,107.322678 223.267654,113.051361 
	C218.850586,114.146980 218.850586,114.146980 213.056091,105.109390 
	C212.974792,103.907349 212.971313,103.407097 212.967834,102.906845 
z"/>
<path fill="#45BAC4" opacity="1.000000" stroke="none" 
	d="
M212.604431,102.716019 
	C212.971313,103.407097 212.974792,103.907349 212.961502,104.782623 
	C212.594299,107.332199 212.379501,109.542015 211.827988,111.664322 
	C211.601181,112.537056 210.649231,113.221359 210.027130,113.991379 
	C209.356110,113.274002 208.131195,112.576996 208.103912,111.835915 
	C207.926819,107.025078 207.927826,102.201881 208.088791,97.390038 
	C208.115936,96.578880 209.201721,95.803154 209.798386,95.011055 
	C210.499573,95.869598 211.559006,96.632317 211.820114,97.608559 
	C212.238510,99.173058 212.127975,100.879028 212.604431,102.716019 
z"/>
<path fill="#F3FBFB" opacity="1.000000" stroke="none" 
	d="
M59.817566,88.898613 
	C60.254562,88.585579 60.691559,88.272537 61.907066,87.954384 
	C63.821705,87.889809 64.957840,87.830360 66.093971,87.770905 
	C79.849838,87.876991 93.605698,88.027016 107.361565,88.027634 
	C108.897278,88.027702 110.413864,86.907921 111.973969,86.797676 
	C113.649559,86.679268 115.366028,87.139442 116.888123,87.813843 
	C113.861870,89.024712 116.259056,90.756966 115.801918,92.217239 
	C111.377647,92.633698 108.148636,96.731369 108.906784,101.360046 
	C109.972870,101.996513 110.989677,102.508133 111.998604,102.493073 
	C116.506538,102.425728 120.444328,101.075752 122.998077,97.018723 
	C122.847923,101.977745 122.710503,106.937241 122.526268,111.894997 
	C122.509377,112.349670 122.100639,112.779465 122.031708,113.244225 
	C121.666191,115.708405 121.826721,120.087440 120.934052,120.310020 
	C117.557289,121.151978 113.844444,120.656982 110.257553,120.632393 
	C109.772438,120.629066 109.288483,120.455818 108.411728,119.895210 
	C107.043221,118.600037 106.066978,117.770905 104.613647,116.940277 
	C92.769897,116.966942 81.403236,116.995102 69.702942,117.025223 
	C68.247200,118.009163 67.125092,118.991135 66.002975,119.973099 
	C53.049568,122.788429 52.564442,121.274788 52.138874,109.881706 
	C51.996094,106.059319 52.179443,102.224754 52.544075,97.842125 
	C56.140095,102.404572 63.367714,104.290192 67.317337,100.812042 
	C67.077324,99.394501 66.602310,98.160133 65.973740,96.621033 
	C63.819302,93.843735 61.818432,91.371178 59.817566,88.898613 
M69.017982,112.685303 
	C80.593102,112.983246 92.168617,113.438004 103.742912,113.408905 
	C105.465477,113.404579 107.182327,111.122734 108.901810,109.894539 
	C107.267776,107.968239 105.714195,104.461617 103.986580,104.373665 
	C93.262947,103.827774 82.481285,103.670715 71.760162,104.208138 
	C67.659210,104.413712 66.336983,108.702316 69.017982,112.685303 
M118.088577,110.783073 
	C119.133835,109.939972 120.179100,109.096870 121.224358,108.253769 
	C120.924538,107.831367 120.624718,107.408958 120.324898,106.986549 
	C117.559601,108.112160 114.794312,109.237770 112.029022,110.363380 
	C112.214348,110.805191 112.399681,111.246994 112.585014,111.688805 
	C114.165215,111.434631 115.745415,111.180466 118.088577,110.783073 
z"/>
<path fill="#BDE6EA" opacity="1.000000" stroke="none" 
	d="
M105.090744,116.941772 
	C106.066978,117.770905 107.043221,118.600037 108.005272,119.818680 
	C94.202034,120.310745 80.412979,120.413307 66.313454,120.244484 
	C67.125092,118.991135 68.247200,118.009163 69.872581,117.380997 
	C71.080734,118.116737 71.782539,118.824829 72.490974,118.831535 
	C82.582787,118.926971 92.675964,118.971992 102.767059,118.863953 
	C103.548386,118.855591 104.316490,117.611511 105.090744,116.941772 
z"/>
<path fill="#3DB7C1" opacity="1.000000" stroke="none" 
	d="
M122.996170,96.638817 
	C120.444328,101.075752 116.506538,102.425728 111.998604,102.493073 
	C110.989677,102.508133 109.972870,101.996513 109.224121,101.219719 
	C113.061356,98.456017 116.634163,96.199974 120.610008,93.689438 
	C118.965256,93.081932 117.489006,92.536667 116.012764,91.991402 
	C116.259056,90.756966 113.861870,89.024712 117.004555,88.201401 
	C119.196434,90.834473 121.095337,93.546692 122.996170,96.638817 
z"/>
<path fill="#3DB7C1" opacity="1.000000" stroke="none" 
	d="
M67.082344,100.995216 
	C63.367714,104.290192 56.140095,102.404572 52.537266,97.406326 
	C52.379993,96.459572 52.559887,95.394974 53.349529,94.328766 
	C55.045101,94.578796 56.130920,94.830437 57.301830,95.083160 
	C57.386917,95.084244 57.538303,95.006500 57.830650,95.247284 
	C59.082310,95.667313 60.041630,95.846565 61.000023,96.011070 
	C60.999096,95.996330 60.976284,96.015266 61.083839,96.332031 
	C63.155045,98.097603 65.118698,99.546410 67.082344,100.995216 
z"/>
<path fill="#5BC2CB" opacity="1.000000" stroke="none" 
	d="
M57.538303,95.006500 
	C57.538303,95.006500 57.386917,95.084244 57.239697,94.719177 
	C56.394344,93.568542 55.696209,92.782982 54.998077,91.997421 
	C56.456497,91.040352 57.914921,90.083282 59.595451,89.012413 
	C61.818432,91.371178 63.819302,93.843735 65.758560,96.821243 
	C64.123390,96.889214 62.549835,96.452240 60.976284,96.015274 
	C60.976284,96.015266 60.999096,95.996330 60.778542,95.705482 
	C59.551430,95.278587 58.544865,95.142540 57.538303,95.006500 
z"/>
<path fill="#6BC8D0" opacity="1.000000" stroke="none" 
	d="
M66.078415,87.416557 
	C64.957840,87.830360 63.821705,87.889809 62.283474,87.794304 
	C63.491650,85.393379 65.118469,83.159050 66.708672,80.898972 
	C69.775551,76.540192 71.865173,76.075462 76.952263,78.662842 
	C69.788467,79.405663 67.985435,80.796394 66.078415,87.416557 
z"/>
<path fill="#6BC8D0" opacity="1.000000" stroke="none" 
	d="
M105.825592,79.194435 
	C103.145370,78.909622 100.465141,78.624802 97.784920,78.339989 
	C97.869537,77.784416 97.954163,77.228844 98.038780,76.673264 
	C100.595345,77.195068 103.151901,77.716873 105.848114,78.630859 
	C105.987755,79.023048 105.825592,79.194435 105.825592,79.194435 
z"/>
<path fill="#99D9DF" opacity="1.000000" stroke="none" 
	d="
M54.856598,92.212387 
	C55.696209,92.782982 56.394344,93.568542 57.154610,94.718094 
	C56.130920,94.830437 55.045101,94.578796 53.708855,94.121330 
	C53.877327,93.419456 54.296219,92.923401 54.856598,92.212387 
z"/>
<path fill="#6BC8D0" opacity="1.000000" stroke="none" 
	d="
M109.046555,82.946243 
	C109.168968,83.428215 109.291382,83.910187 109.413795,84.392159 
	C109.262924,84.114014 109.112053,83.835861 108.979149,83.279144 
	C108.997116,83.000572 109.046555,82.946243 109.046555,82.946243 
z"/>
<path fill="#6BC8D0" opacity="1.000000" stroke="none" 
	d="
M108.112373,81.870369 
	C108.449196,81.970680 108.704659,82.173447 108.962662,82.712456 
	C109.046555,82.946243 108.997116,83.000572 108.968826,83.026474 
	C108.592560,82.998840 108.315262,82.829536 108.056290,82.266129 
	C108.003937,81.987801 108.112373,81.870369 108.112373,81.870369 
z"/>
<path fill="#6BC8D0" opacity="1.000000" stroke="none" 
	d="
M107.945557,82.042381 
	C107.777000,81.877876 107.666817,81.658798 107.556633,81.439713 
	C107.681213,81.480003 107.805801,81.520294 108.021378,81.715485 
	C108.112373,81.870369 108.003937,81.987801 107.945557,82.042381 
z"/>
<path fill="#6BC8D0" opacity="1.000000" stroke="none" 
	d="
M106.073158,78.941666 
	C106.260406,79.103951 106.362244,79.347610 106.464088,79.591270 
	C106.325371,79.560989 106.186661,79.530701 105.936768,79.347427 
	C105.825592,79.194435 105.987755,79.023048 106.073158,78.941666 
z"/>
<path fill="#F3FBFB" opacity="1.000000" stroke="none" 
	d="
M199.798508,102.999649 
	C198.120529,103.534431 196.752289,103.801712 194.995789,104.144844 
	C194.884155,101.988335 194.801483,100.391449 194.721298,98.842659 
	C200.138748,97.395996 201.048553,98.094193 199.798508,102.999649 
z"/>
<path fill="#F3FBFB" opacity="1.000000" stroke="none" 
	d="
M234.646393,98.893631 
	C235.548035,103.931999 235.012421,104.356598 229.269226,103.448807 
	C229.269226,101.893501 229.269226,100.301720 229.269226,98.041367 
	C231.060104,98.238457 232.720749,98.421211 234.646393,98.893631 
z"/>
<path fill="#FFFFFF" opacity="1.000000" stroke="none" 
	d="
M160.891525,101.002243 
	C162.069138,99.728813 163.201782,98.351730 164.441010,98.248009 
	C165.224884,98.182396 166.847733,100.015900 166.848175,100.998184 
	C166.848602,101.981758 165.228363,103.819679 164.446320,103.754280 
	C163.205521,103.650528 162.071091,102.274979 160.891525,101.002243 
z"/>
<path fill="#37B4C0" opacity="1.000000" stroke="none" 
	d="
M68.669930,112.473770 
	C66.336983,108.702316 67.659210,104.413712 71.760162,104.208138 
	C82.481285,103.670715 93.262947,103.827774 103.986580,104.373665 
	C105.714195,104.461617 107.267776,107.968239 108.901810,109.894539 
	C107.182327,111.122734 105.465477,113.404579 103.742912,113.408905 
	C92.168617,113.438004 80.593102,112.983246 68.669930,112.473770 
z"/>
<path fill="#6BC8D0" opacity="1.000000" stroke="none" 
	d="
M104.613647,116.940277 
	C104.316490,117.611511 103.548386,118.855591 102.767059,118.863953 
	C92.675964,118.971992 82.582787,118.926971 72.490974,118.831535 
	C71.782539,118.824829 71.080734,118.116737 70.206207,117.379021 
	C81.403236,116.995102 92.769897,116.966942 104.613647,116.940277 
z"/>
<path fill="#99D9DF" opacity="1.000000" stroke="none" 
	d="
M115.801918,92.217239 
	C117.489006,92.536667 118.965256,93.081932 120.610008,93.689438 
	C116.634163,96.199974 113.061356,98.456017 109.171211,100.852386 
	C108.148636,96.731369 111.377647,92.633698 115.801918,92.217239 
z"/>
<path fill="#99D9DF" opacity="1.000000" stroke="none" 
	d="
M117.707092,110.854691 
	C115.745415,111.180466 114.165215,111.434631 112.585014,111.688805 
	C112.399681,111.246994 112.214348,110.805191 112.029022,110.363380 
	C114.794312,109.237770 117.559601,108.112160 120.324898,106.986549 
	C120.624718,107.408958 120.924538,107.831367 121.224358,108.253769 
	C120.179100,109.096870 119.133835,109.939972 117.707092,110.854691 
z"/>
<path fill="#99D9DF" opacity="1.000000" stroke="none" 
	d="
M61.083839,96.332031 
	C62.549835,96.452240 64.123390,96.889214 65.912125,97.125977 
	C66.602310,98.160133 67.077324,99.394501 67.317337,100.812042 
	C65.118698,99.546410 63.155045,98.097603 61.083839,96.332031 
z"/>
<path fill="#99D9DF" opacity="1.000000" stroke="none" 
	d="
M57.830650,95.247284 
	C58.544865,95.142540 59.551430,95.278587 60.779469,95.720222 
	C60.041630,95.846565 59.082310,95.667313 57.830650,95.247284 
z"/>
</svg>