<svg version="1.1" id="Layer_1" xmlns="http://www.w3.org/2000/svg" xmlns:xlink="http://www.w3.org/1999/xlink" x="0px" y="0px"
	 width="100%" viewBox="0 0 300 300" enable-background="new 0 0 300 300" xml:space="preserve">
<path fill="#000000" opacity="1.000000" stroke="none" 
	d="
M203.000000,301.000000 
	C135.333344,301.000000 68.166687,301.000000 1.000027,301.000000 
	C1.000018,201.000031 1.000018,101.000061 1.000009,1.000067 
	C100.999947,1.000045 200.999893,1.000045 300.999878,1.000022 
	C300.999939,100.999939 300.999939,200.999878 300.999969,300.999908 
	C268.500000,301.000000 236.000000,301.000000 203.000000,301.000000 
M118.599823,134.967209 
	C118.771034,134.683060 118.942245,134.398911 119.702919,133.879440 
	C120.387878,132.665848 121.072830,131.452255 122.038887,129.560928 
	C130.881561,120.464203 131.121460,109.012161 129.635330,97.718658 
	C127.907753,84.590416 119.204796,75.604927 108.707184,68.424484 
	C106.608681,66.989098 103.606972,66.874168 100.595917,66.011955 
	C100.595917,66.011955 100.153809,65.941147 99.787476,65.218430 
	C99.418602,64.889542 99.089905,64.339264 98.675018,64.263985 
	C86.748512,62.099865 75.197227,62.255127 65.003517,69.992393 
	C65.003517,69.992393 64.940742,69.911278 64.278763,69.983917 
	C63.157814,70.962166 62.036861,71.940422 61.002853,72.990639 
	C61.002853,72.990639 60.921741,72.903122 60.219284,72.952003 
	C45.525455,83.897270 42.970596,100.076653 45.824314,116.370422 
	C47.342075,125.036308 53.162125,131.096603 59.817848,137.237106 
	C71.352509,148.546371 81.300301,160.893112 85.835274,178.831512 
	C88.044319,176.554047 90.106842,175.424744 90.464272,173.896591 
	C92.708244,164.302887 98.008171,156.479904 104.535538,148.834900 
	C104.717316,148.555710 104.899094,148.276520 105.003387,148.011520 
	C105.003387,148.011520 105.019035,148.088745 105.568352,147.973816 
	C105.742393,147.660355 105.916435,147.346909 106.020454,147.020828 
	C106.020454,147.020828 106.032753,147.090912 106.567162,146.956848 
	C106.741844,146.648727 106.916519,146.340591 107.021027,146.020432 
	C107.021027,146.020432 107.034569,146.090332 107.577522,145.972244 
	C107.749115,145.660767 107.920708,145.349274 108.021980,145.021957 
	C108.021980,145.021957 108.037910,145.092255 108.579361,144.971420 
	C108.750351,144.660187 108.921341,144.348938 109.016022,144.015564 
	C109.016022,144.015564 109.061218,144.080917 109.667084,143.910385 
	C110.476845,142.970337 111.286606,142.030273 112.590515,140.954010 
	C112.756874,140.666946 112.923233,140.379883 113.698418,139.882721 
	C114.833633,138.621231 115.968849,137.359726 117.598839,135.960754 
	C117.768387,135.674377 117.937927,135.388016 118.599823,134.967209 
M191.180527,95.063187 
	C190.616272,101.271698 190.052017,107.480202 189.404495,114.605049 
	C191.938950,113.824112 193.357391,113.387054 194.949265,112.121620 
	C194.949265,110.494865 194.949265,108.868118 194.949265,106.829254 
	C196.392441,107.220207 197.538010,107.193291 198.129318,107.752464 
	C200.086075,109.602837 201.842896,111.664635 203.676453,113.645294 
	C203.229233,111.319389 202.780243,108.993813 202.339539,106.666672 
	C202.315292,106.538651 202.359924,106.397591 202.372482,106.262596 
	C203.970062,103.724945 205.487854,100.472458 204.485931,98.499657 
	C203.541687,96.640465 200.023285,95.848434 197.484039,95.124634 
	C195.814438,94.648720 193.872971,95.126617 191.180527,95.063187 
M225.017319,111.181778 
	C224.943939,115.333832 227.619339,113.721939 229.782318,113.789192 
	C229.972641,111.331154 230.134064,109.246437 230.308701,106.990982 
	C231.644226,106.990982 232.634979,106.928474 233.615555,107.002029 
	C237.424942,107.287781 239.580429,105.416451 239.949295,101.764420 
	C240.347427,97.822647 237.740479,95.723282 234.381607,95.120857 
	C231.402420,94.586525 228.251678,95.008797 225.016495,95.008797 
	C225.016495,100.607170 225.016495,105.424820 225.017319,111.181778 
M221.097595,113.944672 
	C220.982910,112.731316 221.312210,111.165146 220.676819,110.365562 
	C217.896973,106.867348 214.997406,103.714577 220.466705,99.953743 
	C221.737122,99.080177 222.204636,97.038963 223.043335,95.531906 
	C216.733292,93.048294 215.796387,99.470497 212.299789,101.743011 
	C211.689209,94.993332 211.689209,94.993332 207.166534,95.677628 
	C207.166534,101.625885 207.166534,107.580154 207.166534,113.716980 
	C208.761597,113.716980 210.151611,113.716980 211.746033,113.716980 
	C211.912582,111.163094 212.064316,108.836220 212.190353,106.903381 
	C215.005768,109.338203 217.675842,111.647331 221.097595,113.944672 
M187.083588,109.231056 
	C185.846771,105.725647 184.146164,102.303848 183.495132,98.692825 
	C182.747055,94.543533 180.275375,94.887047 177.504272,95.091621 
	C175.265930,101.351135 173.110809,107.377983 170.955673,113.404823 
	C171.391190,113.839699 171.826691,114.274582 172.262192,114.709465 
	C174.243240,113.146225 176.224289,111.582977 178.205322,110.019737 
	C182.116898,107.482185 183.774689,110.207260 184.530518,114.039894 
	C186.136765,113.914085 187.437866,113.812180 189.080688,113.683510 
	C188.472534,112.259880 187.973404,111.091446 187.083588,109.231056 
M155.961700,99.638779 
	C155.961700,104.382484 155.961700,109.126198 155.961700,114.178444 
	C158.081680,113.909477 159.475998,113.732574 161.068207,113.530563 
	C160.177628,108.500374 161.813065,106.482918 166.863785,106.761368 
	C168.398529,106.845970 171.027649,104.406883 171.436340,102.709679 
	C171.843781,101.017639 170.600632,97.700142 169.185532,97.052612 
	C166.230133,95.700233 162.682846,95.647400 159.382263,95.041389 
	C156.345581,94.483826 155.615936,96.067337 155.961700,99.638779 
M240.034286,110.642380 
	C239.893387,111.688049 239.752487,112.733711 239.509079,114.540077 
	C241.494659,113.851349 243.673477,113.779854 244.544327,112.676239 
	C248.519882,107.638214 248.739777,107.556992 253.366943,112.650131 
	C253.880219,113.215073 254.950226,113.274170 255.762024,113.567863 
	C255.882828,112.876671 256.277222,112.093895 256.081360,111.508713 
	C254.438934,106.601784 252.830841,101.671913 250.850128,96.899300 
	C250.452209,95.940460 248.513672,95.169487 247.286484,95.170921 
	C246.515656,95.171814 245.445572,96.652390 245.030014,97.679596 
	C243.390305,101.732750 241.956299,105.869133 240.034286,110.642380 
M263.714600,114.199554 
	C266.067871,114.041489 268.421173,113.883423 270.774445,113.725357 
	C270.877960,113.223778 270.981506,112.722191 271.085052,112.220612 
	C268.548401,111.624870 266.011749,111.029137 262.982056,110.317596 
	C262.982056,107.448570 262.984161,104.331726 262.981598,101.214882 
	C262.976593,95.151222 262.975525,95.151222 258.208344,95.506279 
	C258.208344,101.588326 258.208344,107.675179 258.208344,113.996941 
	C259.936340,113.996941 261.411285,113.996941 263.714600,114.199554 
z"/>
<path fill="#32B0B9" opacity="1.000000" stroke="none" 
	d="
M100.153809,65.941147 
	C100.153809,65.941147 100.595917,66.011955 101.037552,66.318008 
	C106.512711,70.175339 111.546227,73.726631 116.828362,77.453323 
	C115.435837,80.162910 114.221001,82.526741 112.683823,84.903854 
	C111.586334,84.271667 110.811203,83.626190 110.227097,82.793747 
	C109.938995,82.075432 109.459885,81.544075 108.988091,81.005424 
	C108.995407,80.998138 108.992668,81.014641 108.878975,80.808075 
	C108.574837,80.342789 108.333847,80.145973 107.849579,79.701187 
	C105.107712,78.565857 102.558571,77.740417 100.002655,76.542007 
	C99.544060,75.222527 99.092247,74.276031 98.640427,73.329536 
	C98.089783,74.510033 97.539131,75.690536 96.625694,76.896011 
	C95.411270,77.172462 94.559631,77.423927 93.708000,77.675400 
	C99.019272,79.138885 105.062134,77.807045 108.857605,83.543823 
	C108.870766,85.174110 108.834587,86.430405 108.344467,87.722389 
	C96.934570,87.750565 85.978615,87.743057 74.694649,87.528534 
	C71.854691,87.099030 69.342735,86.876534 66.723900,86.644577 
	C67.246185,84.519615 67.667747,82.804420 68.457741,81.004257 
	C72.401535,79.993011 75.976898,79.066742 79.389580,78.182610 
	C78.490440,78.125198 77.247047,78.045807 75.938133,77.656616 
	C74.902382,77.260712 73.932144,77.174614 72.592392,77.072784 
	C70.791809,78.347626 69.360748,79.638191 67.602707,80.992119 
	C65.852509,82.361412 64.429276,83.667336 62.786896,84.719086 
	C57.361271,81.274078 58.345165,77.201973 60.921741,72.903122 
	C60.921741,72.903122 61.002853,72.990639 61.328960,72.969536 
	C62.750294,71.936050 63.845520,70.923660 64.940742,69.911278 
	C64.940742,69.911278 65.003517,69.992393 65.393517,69.983025 
	C67.724739,69.743416 69.757233,69.802170 71.588516,69.223816 
	C75.620728,67.950386 79.469986,65.486313 83.543427,65.104912 
	C89.006226,64.593422 94.610359,65.591286 100.153809,65.941147 
z"/>
<path fill="#39B0BA" opacity="1.000000" stroke="none" 
	d="
M60.570511,72.927567 
	C58.345165,77.201973 57.361271,81.274078 62.393730,84.725388 
	C61.157902,86.031807 60.096073,87.077728 59.091904,88.370544 
	C59.444313,89.017403 59.739071,89.417374 59.762951,89.962540 
	C59.308750,90.466682 59.125423,90.825638 58.776489,91.359299 
	C58.161819,91.656914 57.712761,91.779816 56.923466,91.914566 
	C55.725273,93.294037 54.867313,94.661667 53.695396,96.148346 
	C53.266270,97.134529 53.151100,98.001663 52.675423,99.071655 
	C52.516323,101.844307 52.717724,104.414108 53.172821,107.170883 
	C53.566742,110.933983 53.706959,114.510109 54.041649,118.422974 
	C57.020390,122.724251 60.489899,121.201813 64.324738,120.089554 
	C71.828278,120.541740 78.930260,120.873856 85.681900,121.427078 
	C79.531570,121.765434 73.730011,122.023384 67.932060,121.958488 
	C62.637020,121.899231 57.271725,121.302025 54.591873,127.293518 
	C56.378040,130.153625 58.197803,133.067505 59.854374,136.168457 
	C59.691185,136.355515 59.397995,136.756180 59.397995,136.756180 
	C53.162125,131.096603 47.342075,125.036308 45.824314,116.370422 
	C42.970596,100.076653 45.525455,83.897270 60.570511,72.927567 
z"/>
<path fill="#39B0BA" opacity="1.000000" stroke="none" 
	d="
M113.006165,84.890564 
	C114.221001,82.526741 115.435837,80.162910 116.828362,77.453323 
	C111.546227,73.726631 106.512711,70.175339 101.250458,66.387215 
	C103.606972,66.874168 106.608681,66.989098 108.707184,68.424484 
	C119.204796,75.604927 127.907753,84.590416 129.635330,97.718658 
	C131.121460,109.012161 130.881561,120.464203 121.643265,129.969742 
	C120.606590,130.665741 119.965523,130.952927 119.233307,130.813873 
	C120.654976,124.555946 119.046638,121.096207 112.375114,121.464882 
	C112.243942,121.472145 112.102531,121.294212 112.412689,121.130295 
	C114.841949,121.044533 116.923157,121.393097 118.771736,120.888863 
	C119.978188,120.559784 121.454521,119.136162 121.735046,117.948868 
	C122.250771,115.766068 121.973610,113.395935 122.074013,110.785774 
	C122.138268,110.040077 122.155449,109.612495 122.487625,108.907959 
	C122.924179,106.077690 123.045723,103.524368 123.432594,100.740631 
	C123.757607,95.933006 122.062920,92.348488 117.882919,89.796501 
	C116.825737,88.032059 115.741516,86.656654 114.404999,85.288704 
	C113.818954,85.329765 113.485184,85.363373 113.123772,85.267891 
	C113.096123,85.138802 113.006165,84.890564 113.006165,84.890564 
M126.886116,115.922768 
	C128.972321,108.841835 128.518051,98.634598 126.126945,96.540047 
	C125.697037,103.750595 125.262619,111.036697 124.771172,119.279442 
	C125.740540,117.890266 126.178833,117.262161 126.886116,115.922768 
z"/>
<path fill="#39B0BA" opacity="1.000000" stroke="none" 
	d="
M104.068298,149.029800 
	C98.008171,156.479904 92.708244,164.302887 90.464272,173.896591 
	C90.106842,175.424744 88.044319,176.554047 85.835274,178.831512 
	C81.300301,160.893112 71.352509,148.546371 59.607922,136.996643 
	C59.397995,136.756180 59.691185,136.355515 60.249748,136.175568 
	C62.438347,136.799530 64.393890,137.267456 65.636383,138.471313 
	C69.132462,141.858688 72.407845,145.484955 75.625999,149.143875 
	C77.534065,151.313263 79.517670,153.538696 80.850990,156.064301 
	C83.233856,160.577988 85.150589,165.337769 87.262199,169.994659 
	C87.937042,169.914291 88.611885,169.833923 89.286720,169.753571 
	C90.193588,166.865921 90.979294,163.932556 92.046318,161.105362 
	C92.874870,158.910065 93.763519,156.630127 95.146675,154.776779 
	C97.193268,152.034485 100.117851,149.894516 101.897255,147.020508 
	C103.696304,144.114777 105.439804,141.898041 109.056610,142.470428 
	C109.009453,143.225861 109.035332,143.653397 109.061218,144.080917 
	C109.061218,144.080917 109.016022,144.015564 108.732819,144.005310 
	C108.312378,144.360794 108.175140,144.726517 108.037903,145.092255 
	C108.037910,145.092255 108.021980,145.021957 107.736069,145.008301 
	C107.311623,145.359863 107.173096,145.725098 107.034576,146.090332 
	C107.034569,146.090332 107.021027,146.020432 106.740295,146.017120 
	C106.317291,146.372833 106.175018,146.731873 106.032745,147.090912 
	C106.032753,147.090912 106.020454,147.020828 105.739418,147.010864 
	C105.311935,147.363510 105.165482,147.726135 105.019035,148.088745 
	C105.019035,148.088745 105.003387,148.011520 104.853882,148.061508 
	C104.492348,148.417587 104.280319,148.723694 104.068298,149.029800 
z"/>
<path fill="#4BB0B7" opacity="1.000000" stroke="none" 
	d="
M225.016907,110.712128 
	C225.016495,105.424820 225.016495,100.607170 225.016495,95.008797 
	C228.251678,95.008797 231.402420,94.586525 234.381607,95.120857 
	C237.740479,95.723282 240.347427,97.822647 239.949295,101.764420 
	C239.580429,105.416451 237.424942,107.287781 233.615555,107.002029 
	C232.634979,106.928474 231.644226,106.990982 230.308701,106.990982 
	C230.134064,109.246437 229.972641,111.331154 229.782318,113.789192 
	C227.619339,113.721939 224.943939,115.333832 225.016907,110.712128 
z"/>
<path fill="#50B0B7" opacity="1.000000" stroke="none" 
	d="
M220.721756,113.950562 
	C217.675842,111.647331 215.005768,109.338203 212.190353,106.903381 
	C212.064316,108.836220 211.912582,111.163094 211.746033,113.716980 
	C210.151611,113.716980 208.761597,113.716980 207.166534,113.716980 
	C207.166534,107.580154 207.166534,101.625885 207.166534,95.677628 
	C211.689209,94.993332 211.689209,94.993332 212.299789,101.743011 
	C215.796387,99.470497 216.733292,93.048294 223.043335,95.531906 
	C222.204636,97.038963 221.737122,99.080177 220.466705,99.953743 
	C214.997406,103.714577 217.896973,106.867348 220.676819,110.365562 
	C221.312210,111.165146 220.982910,112.731316 220.721756,113.950562 
z"/>
<path fill="#50B0B7" opacity="1.000000" stroke="none" 
	d="
M187.278931,109.577034 
	C187.973404,111.091446 188.472534,112.259880 189.080688,113.683510 
	C187.437866,113.812180 186.136765,113.914085 184.530518,114.039894 
	C183.774689,110.207260 182.116898,107.482185 178.205322,110.019737 
	C176.224289,111.582977 174.243240,113.146225 172.262192,114.709465 
	C171.826691,114.274582 171.391190,113.839699 170.955673,113.404823 
	C173.110809,107.377983 175.265930,101.351135 177.504272,95.091621 
	C180.275375,94.887047 182.747055,94.543533 183.495132,98.692825 
	C184.146164,102.303848 185.846771,105.725647 187.278931,109.577034 
z"/>
<path fill="#4BB0B7" opacity="1.000000" stroke="none" 
	d="
M155.962494,99.158066 
	C155.615936,96.067337 156.345581,94.483826 159.382263,95.041389 
	C162.682846,95.647400 166.230133,95.700233 169.185532,97.052612 
	C170.600632,97.700142 171.843781,101.017639 171.436340,102.709679 
	C171.027649,104.406883 168.398529,106.845970 166.863785,106.761368 
	C161.813065,106.482918 160.177628,108.500374 161.068207,113.530563 
	C159.475998,113.732574 158.081680,113.909477 155.961700,114.178444 
	C155.961700,109.126198 155.961700,104.382484 155.962494,99.158066 
M165.922089,101.454163 
	C164.919434,100.330765 163.916779,99.207359 162.914108,98.083954 
	C162.129990,99.867058 161.345856,101.650162 160.561722,103.433266 
	C161.053543,103.781815 161.545364,104.130371 162.037170,104.478920 
	C163.313690,103.744865 164.590195,103.010818 165.922089,101.454163 
z"/>
<path fill="#4BB0B7" opacity="1.000000" stroke="none" 
	d="
M240.240143,110.308510 
	C241.956299,105.869133 243.390305,101.732750 245.030014,97.679596 
	C245.445572,96.652390 246.515656,95.171814 247.286484,95.170921 
	C248.513672,95.169487 250.452209,95.940460 250.850128,96.899300 
	C252.830841,101.671913 254.438934,106.601784 256.081360,111.508713 
	C256.277222,112.093895 255.882828,112.876671 255.762024,113.567863 
	C254.950226,113.274170 253.880219,113.215073 253.366943,112.650131 
	C248.739777,107.556992 248.519882,107.638214 244.544327,112.676239 
	C243.673477,113.779854 241.494659,113.851349 239.509079,114.540077 
	C239.752487,112.733711 239.893387,111.688049 240.240143,110.308510 
z"/>
<path fill="#39B0BA" opacity="1.000000" stroke="none" 
	d="
M192.053238,95.177391 
	C193.872971,95.126617 195.814438,94.648720 197.484039,95.124634 
	C200.023285,95.848434 203.541687,96.640465 204.485931,98.499657 
	C205.487854,100.472458 203.970062,103.724945 202.372482,106.262596 
	C202.359924,106.397591 202.315292,106.538651 202.339539,106.666672 
	C202.780243,108.993813 203.229233,111.319389 203.676453,113.645294 
	C201.842896,111.664635 200.086075,109.602837 198.129318,107.752464 
	C197.538010,107.193291 196.392441,107.220207 194.949265,106.829254 
	C194.949265,108.868118 194.949265,110.494865 194.469757,112.513443 
	C193.325943,111.617271 192.152039,110.353500 192.089478,109.036919 
	C191.870453,104.426910 192.034607,99.798691 192.053238,95.177391 
M197.965439,98.027069 
	C192.292328,97.957047 195.990814,101.743240 195.666260,104.170113 
	C197.596344,103.670128 199.301544,102.906563 200.492172,101.653915 
	C200.779526,101.351585 199.364456,99.431129 197.965439,98.027069 
z"/>
<path fill="#4BB0B7" opacity="1.000000" stroke="none" 
	d="
M263.300415,114.098251 
	C261.411285,113.996941 259.936340,113.996941 258.208344,113.996941 
	C258.208344,107.675179 258.208344,101.588326 258.208344,95.506279 
	C262.975525,95.151222 262.976593,95.151222 262.981598,101.214882 
	C262.984161,104.331726 262.982056,107.448570 262.982056,110.317596 
	C266.011749,111.029137 268.548401,111.624870 271.085052,112.220612 
	C270.981506,112.722191 270.877960,113.223778 270.774445,113.725357 
	C268.421173,113.883423 266.067871,114.041489 263.300415,114.098251 
z"/>
<path fill="#39B0BA" opacity="1.000000" stroke="none" 
	d="
M99.970642,65.579788 
	C94.610359,65.591286 89.006226,64.593422 83.543427,65.104912 
	C79.469986,65.486313 75.620728,67.950386 71.588516,69.223816 
	C69.757233,69.802170 67.724739,69.743416 65.351913,69.954987 
	C75.197227,62.255127 86.748512,62.099865 98.675018,64.263985 
	C99.089905,64.339264 99.418602,64.889542 99.970642,65.579788 
z"/>
<path fill="#50B0B7" opacity="1.000000" stroke="none" 
	d="
M191.616882,95.120285 
	C192.034607,99.798691 191.870453,104.426910 192.089478,109.036919 
	C192.152039,110.353500 193.325943,111.617271 194.383026,112.927628 
	C193.357391,113.387054 191.938950,113.824112 189.404495,114.605049 
	C190.052017,107.480202 190.616272,101.271698 191.616882,95.120285 
z"/>
<path fill="#39B0BA" opacity="1.000000" stroke="none" 
	d="
M64.609756,69.947601 
	C63.845520,70.923660 62.750294,71.936050 61.285492,72.933548 
	C62.036861,71.940422 63.157814,70.962166 64.609756,69.947601 
z"/>
<path fill="#BAE9EF" opacity="1.000000" stroke="none" 
	d="
M117.104080,136.098236 
	C115.968849,137.359726 114.833633,138.621231 113.373428,139.966949 
	C113.048447,140.051178 113.009354,140.007599 112.919701,139.693115 
	C112.927216,138.954514 113.024384,138.530396 113.110054,138.072998 
	C113.098549,138.039749 113.053909,138.094162 113.304962,138.011978 
	C113.734924,137.637466 113.913818,137.345139 114.055145,137.036591 
	C114.017563,137.020340 114.054932,137.093201 114.305145,137.009369 
	C114.732468,136.632828 114.909576,136.340103 115.056465,136.065613 
	C115.026245,136.083817 115.093399,136.105469 115.414474,136.031998 
	C116.157280,135.972595 116.579002,135.986649 117.026627,136.025024 
	C117.052528,136.049347 117.104080,136.098236 117.104080,136.098236 
z"/>
<path fill="#BAE9EF" opacity="1.000000" stroke="none" 
	d="
M119.324463,131.240112 
	C119.965523,130.952927 120.606590,130.665741 121.502716,130.308609 
	C121.072830,131.452255 120.387878,132.665848 119.361328,133.950699 
	C119.019745,134.021957 118.920296,133.935303 118.820984,133.599060 
	C118.888039,132.578064 119.054413,131.893326 119.245850,131.219238 
	C119.270920,131.229919 119.324463,131.240112 119.324463,131.240112 
z"/>
<path fill="#BAE9EF" opacity="1.000000" stroke="none" 
	d="
M109.364151,143.995651 
	C109.035332,143.653397 109.009453,143.225861 109.047302,142.442963 
	C109.111038,142.087585 109.053299,142.083313 109.305138,142.005905 
	C109.732773,141.636337 109.908569,141.344193 110.063461,141.075989 
	C110.042549,141.099945 110.105026,141.111801 110.425102,141.050232 
	C111.164803,140.994095 111.584435,140.999527 112.027466,141.025909 
	C112.050873,141.046860 112.096367,141.090210 112.096375,141.090210 
	C111.286606,142.030273 110.476845,142.970337 109.364151,143.995651 
z"/>
<path fill="#BAE9EF" opacity="1.000000" stroke="none" 
	d="
M104.301910,148.932343 
	C104.280319,148.723694 104.492348,148.417587 104.892624,148.054413 
	C104.899094,148.276520 104.717316,148.555710 104.301910,148.932343 
z"/>
<path fill="#BAE9EF" opacity="1.000000" stroke="none" 
	d="
M106.299957,147.023880 
	C106.175018,146.731873 106.317291,146.372833 106.775375,146.023132 
	C106.916519,146.340591 106.741844,146.648727 106.299957,147.023880 
z"/>
<path fill="#BAE9EF" opacity="1.000000" stroke="none" 
	d="
M107.306046,146.031281 
	C107.173096,145.725098 107.311623,145.359863 107.771225,145.016205 
	C107.920708,145.349274 107.749115,145.660767 107.306046,146.031281 
z"/>
<path fill="#BAE9EF" opacity="1.000000" stroke="none" 
	d="
M105.293694,148.031281 
	C105.165482,147.726135 105.311935,147.363510 105.774429,147.017181 
	C105.916435,147.346909 105.742393,147.660355 105.293694,148.031281 
z"/>
<path fill="#BAE9EF" opacity="1.000000" stroke="none" 
	d="
M108.308632,145.031830 
	C108.175140,144.726517 108.312378,144.360794 108.770966,144.016388 
	C108.921341,144.348938 108.750351,144.660187 108.308632,145.031830 
z"/>
<path fill="#BAE9EF" opacity="1.000000" stroke="none" 
	d="
M113.069023,140.071991 
	C112.923233,140.379883 112.756874,140.666946 112.343445,141.022110 
	C112.096367,141.090210 112.050873,141.046860 112.017609,140.725952 
	C112.326019,140.272568 112.667686,140.140091 113.009354,140.007599 
	C113.009354,140.007599 113.048447,140.051178 113.069023,140.071991 
z"/>
<path fill="#BAE9EF" opacity="1.000000" stroke="none" 
	d="
M118.107468,135.101654 
	C117.937927,135.388016 117.768387,135.674377 117.351456,136.029495 
	C117.104080,136.098236 117.052528,136.049347 116.997314,135.718323 
	C117.291008,135.254654 117.639908,135.122009 118.018524,135.017380 
	C118.048233,135.045395 118.107475,135.101654 118.107468,135.101654 
z"/>
<path fill="#BAE9EF" opacity="1.000000" stroke="none" 
	d="
M119.066605,134.068359 
	C118.942245,134.398911 118.771034,134.683060 118.353653,135.034424 
	C118.107475,135.101654 118.048233,135.045395 117.976761,134.710510 
	C118.243622,134.228867 118.581963,134.082092 118.920296,133.935303 
	C118.920296,133.935303 119.019745,134.021957 119.066605,134.068359 
z"/>
<path fill="#64C3CA" opacity="1.000000" stroke="none" 
	d="
M59.034248,88.123657 
	C60.096073,87.077728 61.157902,86.031807 62.612888,84.979576 
	C64.429276,83.667336 65.852509,82.361412 67.642517,81.032333 
	C68.009300,81.009186 68.089317,81.089226 68.089317,81.089226 
	C67.667747,82.804420 67.246185,84.519615 66.723900,86.644577 
	C69.342735,86.876534 71.854691,87.099030 74.680222,87.806747 
	C74.988914,88.476463 74.984047,88.660965 74.538651,88.906044 
	C69.076843,88.685631 64.055550,88.404640 59.034248,88.123657 
z"/>
<path fill="#98DEE5" opacity="1.000000" stroke="none" 
	d="
M74.979172,88.845474 
	C74.984047,88.660965 74.988914,88.476463 75.008224,88.013763 
	C85.978615,87.743057 96.934570,87.750565 108.729568,87.807060 
	C110.089218,87.906219 110.609825,87.956398 110.914276,88.397270 
	C98.791801,88.807137 86.885483,88.826309 74.979172,88.845474 
z"/>
<path fill="#64C3CA" opacity="1.000000" stroke="none" 
	d="
M108.808266,83.169838 
	C105.062134,77.807045 99.019272,79.138885 93.708000,77.675400 
	C94.559631,77.423927 95.411270,77.172462 97.002396,76.932343 
	C98.497742,76.934128 99.253586,76.924553 100.009438,76.914978 
	C102.558571,77.740417 105.107712,78.565857 107.957802,79.910919 
	C108.450058,80.692245 108.694695,80.886940 108.992668,81.014641 
	C108.992668,81.014641 108.995407,80.998138 109.003853,81.316986 
	C109.050240,82.048790 109.088173,82.461731 109.047646,82.949539 
	C108.969185,83.024406 108.808266,83.169838 108.808266,83.169838 
z"/>
<path fill="#64C3CA" opacity="1.000000" stroke="none" 
	d="
M67.969490,80.968964 
	C69.360748,79.638191 70.791809,78.347626 72.827484,77.302856 
	C74.289276,77.687904 75.146469,77.827164 76.003654,77.966423 
	C77.247047,78.045807 78.490440,78.125198 79.389580,78.182610 
	C75.976898,79.066742 72.401535,79.993011 68.457741,81.004257 
	C68.089317,81.089226 68.009300,81.009186 67.969490,80.968964 
z"/>
<path fill="#64C3CA" opacity="1.000000" stroke="none" 
	d="
M111.130440,88.006569 
	C110.609825,87.956398 110.089218,87.906219 109.183502,87.771378 
	C108.834587,86.430405 108.870766,85.174110 108.857605,83.543823 
	C108.808266,83.169838 108.969185,83.024406 109.273987,82.980484 
	C109.578796,82.936554 110.036072,82.980713 110.036072,82.980713 
	C110.811203,83.626190 111.586334,84.271667 112.683815,84.903854 
	C113.006165,84.890564 113.096123,85.138802 113.133377,85.608063 
	C113.084824,86.756134 112.999008,87.434937 112.617767,88.072685 
	C111.925041,88.023270 111.527740,88.014915 111.130440,88.006569 
z"/>
<path fill="#39B0BA" opacity="1.000000" stroke="none" 
	d="
M100.002655,76.542000 
	C99.253586,76.924553 98.497742,76.934128 97.365189,76.907372 
	C97.539131,75.690536 98.089783,74.510033 98.640427,73.329536 
	C99.092247,74.276031 99.544060,75.222527 100.002655,76.542000 
z"/>
<path fill="#39B0BA" opacity="1.000000" stroke="none" 
	d="
M75.938133,77.656616 
	C75.146469,77.827164 74.289276,77.687904 73.197006,77.318581 
	C73.932144,77.174614 74.902382,77.260712 75.938133,77.656616 
z"/>
<path fill="#39B0BA" opacity="1.000000" stroke="none" 
	d="
M110.227097,82.793747 
	C110.036072,82.980713 109.578796,82.936554 109.352448,82.905617 
	C109.088173,82.461731 109.050240,82.048790 108.996536,81.324280 
	C109.459885,81.544075 109.938995,82.075432 110.227097,82.793747 
z"/>
<path fill="#39B0BA" opacity="1.000000" stroke="none" 
	d="
M108.878975,80.808075 
	C108.694695,80.886940 108.450058,80.692245 108.150528,80.220810 
	C108.333847,80.145973 108.574837,80.342789 108.878975,80.808075 
z"/>
<path fill="#2BB0BC" opacity="1.000000" stroke="none" 
	d="
M109.120346,142.115051 
	C105.439804,141.898041 103.696304,144.114777 101.897255,147.020508 
	C100.117851,149.894516 97.193268,152.034485 95.146675,154.776779 
	C93.763519,156.630127 92.874870,158.910065 92.046318,161.105362 
	C90.979294,163.932556 90.193588,166.865921 89.286720,169.753571 
	C88.611885,169.833923 87.937042,169.914291 87.262199,169.994659 
	C85.150589,165.337769 83.233856,160.577988 80.850990,156.064301 
	C79.517670,153.538696 77.534065,151.313263 75.625999,149.143875 
	C72.407845,145.484955 69.132462,141.858688 65.636383,138.471313 
	C64.393890,137.267456 62.438347,136.799530 60.412933,135.988525 
	C58.197803,133.067505 56.378040,130.153625 54.591873,127.293518 
	C57.271725,121.302025 62.637020,121.899231 67.932060,121.958488 
	C73.730011,122.023384 79.531570,121.765434 85.906448,121.360649 
	C86.481331,121.073112 86.939240,120.973183 87.220093,120.978546 
	C87.688171,120.979950 87.875397,120.975983 88.309189,121.022491 
	C88.718269,121.114738 88.880775,121.156502 89.381355,121.424805 
	C96.475800,121.465866 103.232178,121.280403 110.242104,121.054680 
	C110.666519,121.004570 110.837387,120.994728 111.252846,121.016541 
	C111.497437,121.048210 111.965904,121.202675 111.965904,121.202675 
	C112.102531,121.294212 112.243942,121.472145 112.375114,121.464882 
	C119.046638,121.096207 120.654976,124.555946 119.233307,130.813873 
	C119.324463,131.240112 119.270920,131.229919 118.871941,131.196594 
	C117.346443,132.810684 116.219917,134.458069 115.093399,136.105469 
	C115.093399,136.105469 115.026245,136.083817 114.829254,136.179276 
	C114.439819,136.547562 114.247383,136.820389 114.054932,137.093201 
	C114.054932,137.093201 114.017563,137.020340 113.826645,137.148743 
	C113.441788,137.549484 113.247841,137.821823 113.053909,138.094162 
	C113.053909,138.094162 113.098549,138.039749 112.730881,138.053207 
	C111.610481,139.081711 110.857750,140.096756 110.105019,141.111786 
	C110.105026,141.111801 110.042549,141.099945 109.836952,141.187073 
	C109.438667,141.543900 109.245979,141.813599 109.053299,142.083313 
	C109.053299,142.083313 109.111038,142.087585 109.120346,142.115051 
M60.409779,127.824738 
	C60.700256,128.387817 60.990734,128.950897 61.281208,129.513977 
	C61.693623,129.107117 62.106037,128.700241 62.518456,128.293381 
	C61.959671,127.995560 61.400890,127.697731 60.409779,127.824738 
z"/>
<path fill="#000000" opacity="1.000000" stroke="none" 
	d="
M112.412689,121.130295 
	C111.965904,121.202675 111.497437,121.048210 111.244675,120.625168 
	C108.608200,118.792931 106.269531,116.264992 103.833046,116.166916 
	C92.886208,115.726265 81.910492,115.900925 70.948181,116.059715 
	C69.351532,116.082840 67.771004,117.219696 66.788254,117.604324 
	C64.018875,117.102570 61.487362,116.643913 58.594315,116.109268 
	C57.384472,115.705116 56.536163,115.376938 55.807320,114.689087 
	C56.135513,112.974998 56.344242,111.620583 56.528435,110.425377 
	C56.111240,109.565628 55.669292,108.303459 54.910698,107.274780 
	C54.630535,106.894867 53.604805,107.064774 52.919125,106.983902 
	C52.717724,104.414108 52.516323,101.844307 52.908127,99.150909 
	C53.501339,99.027306 53.989532,99.080284 54.120564,99.407059 
	C56.120983,100.487885 57.990368,101.241928 60.053993,102.375153 
	C63.035786,102.464737 65.823334,102.175148 68.610886,101.885551 
	C67.116821,99.764252 65.626678,97.640167 64.125610,95.523834 
	C63.797386,95.061050 63.430222,94.625885 62.796677,94.085922 
	C62.314232,93.045074 62.116100,92.096321 61.932388,90.798325 
	C61.309147,90.238510 60.671486,90.027924 60.033825,89.817337 
	C59.739071,89.417374 59.444313,89.017403 59.091904,88.370544 
	C64.055550,88.404640 69.076843,88.685631 74.538651,88.906044 
	C86.885483,88.826309 98.791801,88.807137 110.914276,88.397270 
	C111.527740,88.014915 111.925041,88.023270 112.642822,88.469223 
	C113.017723,89.960693 113.072144,91.014557 112.966934,92.360260 
	C110.996674,95.635635 109.186035,98.619171 107.378448,101.597679 
	C111.592392,103.977356 117.323891,103.255608 121.346703,99.996933 
	C121.934296,99.329620 122.199242,98.790047 122.670303,97.830742 
	C122.883438,99.177513 123.025352,100.074272 123.167267,100.971039 
	C123.045723,103.524368 122.924179,106.077690 122.212036,108.800766 
	C121.429359,108.931824 121.237267,108.893127 121.018318,108.501625 
	C117.956909,108.816689 114.922356,109.484558 111.887802,110.152435 
	C112.021477,110.641830 112.155144,111.131226 112.288818,111.620621 
	C114.864326,111.026505 117.439842,110.432381 120.298721,109.960464 
	C121.063705,110.423073 121.545319,110.763474 122.026932,111.103882 
	C121.973610,113.395935 122.250771,115.766068 121.735046,117.948868 
	C121.454521,119.136162 119.978188,120.559784 118.771736,120.888863 
	C116.923157,121.393097 114.841949,121.044533 112.412689,121.130295 
M103.906509,103.403473 
	C103.223984,103.301804 102.541466,103.200127 101.636795,102.932495 
	C101.636795,102.932495 101.382767,103.043648 100.854637,102.281967 
	C92.377876,102.179741 83.901192,102.062119 75.424133,102.021133 
	C75.004059,102.019104 74.580765,102.684204 73.767159,103.692741 
	C70.211319,104.108528 66.521881,105.273331 66.265778,109.148643 
	C66.026245,112.773262 69.442909,114.268280 72.746559,114.314911 
	C82.582375,114.453720 92.429008,114.564079 102.254570,114.213356 
	C104.983177,114.115967 107.653145,112.375969 110.350014,111.389572 
	C110.434174,110.720001 110.518341,110.050430 110.602501,109.380859 
	C108.476212,107.601578 106.349922,105.822304 103.906509,103.403473 
z"/>
<path fill="#BAE9EF" opacity="1.000000" stroke="none" 
	d="
M58.955849,116.185249 
	C61.487362,116.643913 64.018875,117.102570 66.788254,117.604324 
	C67.771004,117.219696 69.351532,116.082840 70.948181,116.059715 
	C81.910492,115.900925 92.886208,115.726265 103.833046,116.166916 
	C106.269531,116.264992 108.608200,118.792931 111.000076,120.593498 
	C110.837387,120.994728 110.666519,121.004570 109.780655,120.968910 
	C102.391533,121.015022 95.717407,121.106644 89.043289,121.198273 
	C88.880775,121.156502 88.718269,121.114738 88.212593,120.820732 
	C87.559364,120.703384 87.249298,120.838280 86.939240,120.973183 
	C86.939240,120.973183 86.481331,121.073112 86.256790,121.139542 
	C78.930260,120.873856 71.828278,120.541740 64.196342,119.715912 
	C61.729431,118.821472 59.792458,118.420738 58.127533,117.994781 
	C58.918991,117.823494 59.438404,117.677422 59.957817,117.531357 
	C59.623825,117.082649 59.289837,116.633949 58.955849,116.185249 
M74.962494,117.052643 
	C73.856560,117.249275 72.750626,117.445900 71.644691,117.642532 
	C71.694908,117.875854 71.745117,118.109177 71.795334,118.342499 
	C82.924622,118.342499 94.053902,118.342499 105.183189,118.342499 
	C105.179405,117.912117 105.175613,117.481728 105.171829,117.051346 
	C95.399620,117.051346 85.627411,117.051346 74.962494,117.052643 
z"/>
<path fill="#98DEE5" opacity="1.000000" stroke="none" 
	d="
M63.080990,94.178001 
	C63.430222,94.625885 63.797386,95.061050 64.125610,95.523834 
	C65.626678,97.640167 67.116821,99.764252 68.610886,101.885551 
	C65.823334,102.175148 63.035786,102.464737 60.465797,102.314392 
	C62.508049,101.874451 64.332741,101.874451 66.654228,101.874451 
	C62.320370,96.899834 59.983166,95.887360 53.971924,95.982468 
	C53.997303,95.979637 54.009357,96.029289 54.009357,96.029289 
	C54.867313,94.661667 55.725273,93.294037 56.940361,92.263504 
	C59.225323,93.126389 61.153156,93.652199 63.080990,94.178001 
z"/>
<path fill="#000000" opacity="1.000000" stroke="none" 
	d="
M57.855488,118.020004 
	C59.792458,118.420738 61.729431,118.821472 63.794792,119.595840 
	C60.489899,121.201813 57.020390,122.724251 54.145027,118.160683 
	C54.361683,117.455193 54.669445,117.348732 55.106987,117.545273 
	C56.109673,117.905525 56.982578,117.962761 57.855488,118.020004 
z"/>
<path fill="#BAE9EF" opacity="1.000000" stroke="none" 
	d="
M54.977207,117.242271 
	C54.669445,117.348732 54.361683,117.455193 53.950550,117.823944 
	C53.706959,114.510109 53.566742,110.933983 53.172821,107.170883 
	C53.604805,107.064774 54.630535,106.894867 54.910698,107.274780 
	C55.669292,108.303459 56.111240,109.565628 56.528435,110.425377 
	C56.344242,111.620583 56.135513,112.974998 55.609928,114.910721 
	C55.187786,116.075439 55.082497,116.658859 54.977207,117.242271 
z"/>
<path fill="#4BB0B7" opacity="1.000000" stroke="none" 
	d="
M62.796677,94.085922 
	C61.153156,93.652199 59.225323,93.126389 57.280594,92.251648 
	C57.712761,91.779816 58.161819,91.656914 59.149559,91.390488 
	C60.431484,91.213837 61.174725,91.180695 61.917969,91.147560 
	C62.116100,92.096321 62.314232,93.045074 62.796677,94.085922 
z"/>
<path fill="#BAE9EF" opacity="1.000000" stroke="none" 
	d="
M53.989532,99.080284 
	C53.989532,99.080284 53.501339,99.027306 53.268635,98.948051 
	C53.151100,98.001663 53.266270,97.134529 53.695396,96.148346 
	C54.009357,96.029289 53.997303,95.979637 54.013054,96.367966 
	C54.015717,97.530960 54.002625,98.305618 53.989532,99.080284 
z"/>
<path fill="#BAE9EF" opacity="1.000000" stroke="none" 
	d="
M61.932388,90.798325 
	C61.174725,91.180695 60.431484,91.213837 59.315170,91.215775 
	C59.125423,90.825638 59.308750,90.466682 59.762951,89.962532 
	C60.671486,90.027924 61.309147,90.238510 61.932388,90.798325 
z"/>
<path fill="#2BB0BC" opacity="1.000000" stroke="none" 
	d="
M126.751617,116.278412 
	C126.178833,117.262161 125.740540,117.890266 124.771172,119.279442 
	C125.262619,111.036697 125.697037,103.750595 126.126945,96.540047 
	C128.518051,98.634598 128.972321,108.841835 126.751617,116.278412 
z"/>
<path fill="#BAE9EF" opacity="1.000000" stroke="none" 
	d="
M123.432594,100.740631 
	C123.025352,100.074272 122.883438,99.177513 122.670303,97.830742 
	C122.199242,98.790047 121.934296,99.329620 121.311028,99.588379 
	C121.254745,93.747734 117.033485,93.077988 113.126556,92.068420 
	C113.072144,91.014557 113.017723,89.960693 112.938248,88.510284 
	C112.999008,87.434937 113.084824,86.756134 113.161026,85.737152 
	C113.485184,85.363373 113.818954,85.329765 114.448212,85.665787 
	C115.781090,87.418785 116.818481,88.802162 117.855873,90.185539 
	C122.062920,92.348488 123.757607,95.933006 123.432594,100.740631 
z"/>
<path fill="#64C3CA" opacity="1.000000" stroke="none" 
	d="
M117.882919,89.796501 
	C116.818481,88.802162 115.781090,87.418785 114.700493,85.658325 
	C115.741516,86.656654 116.825737,88.032059 117.882919,89.796501 
z"/>
<path fill="#BAE9EF" opacity="1.000000" stroke="none" 
	d="
M122.074013,110.785774 
	C121.545319,110.763474 121.063705,110.423073 120.434402,109.761978 
	C120.533585,109.237976 120.786407,109.042358 121.045174,108.854439 
	C121.237267,108.893127 121.429359,108.931824 121.897034,109.077713 
	C122.155449,109.612495 122.138268,110.040077 122.074013,110.785774 
z"/>
<path fill="#000000" opacity="1.000000" stroke="none" 
	d="
M165.894394,101.865463 
	C164.590195,103.010818 163.313690,103.744865 162.037170,104.478920 
	C161.545364,104.130371 161.053543,103.781815 160.561722,103.433266 
	C161.345856,101.650162 162.129990,99.867058 162.914124,98.083954 
	C163.916779,99.207359 164.919434,100.330765 165.894394,101.865463 
z"/>
<path fill="#000000" opacity="1.000000" stroke="none" 
	d="
M198.348862,98.140930 
	C199.364456,99.431129 200.779526,101.351585 200.492172,101.653915 
	C199.301544,102.906563 197.596344,103.670128 195.666260,104.170113 
	C195.990814,101.743240 192.292328,97.957047 198.348862,98.140930 
z"/>
<path fill="#39B0BA" opacity="1.000000" stroke="none" 
	d="
M115.414474,136.031998 
	C116.219917,134.458069 117.346443,132.810684 118.846870,131.185928 
	C119.054413,131.893326 118.888039,132.578064 118.820984,133.599060 
	C118.581963,134.082092 118.243622,134.228867 117.947044,134.682495 
	C117.639908,135.122009 117.291008,135.254654 116.971420,135.694016 
	C116.579002,135.986649 116.157280,135.972595 115.414474,136.031998 
z"/>
<path fill="#39B0BA" opacity="1.000000" stroke="none" 
	d="
M110.425095,141.050232 
	C110.857750,140.096756 111.610481,139.081711 112.742386,138.086456 
	C113.024384,138.530396 112.927216,138.954514 112.919701,139.693130 
	C112.667686,140.140091 112.326019,140.272568 111.994202,140.705002 
	C111.584435,140.999527 111.164803,140.994095 110.425095,141.050232 
z"/>
<path fill="#39B0BA" opacity="1.000000" stroke="none" 
	d="
M114.305145,137.009369 
	C114.247383,136.820389 114.439819,136.547562 114.859467,136.161072 
	C114.909576,136.340103 114.732468,136.632828 114.305145,137.009369 
z"/>
<path fill="#39B0BA" opacity="1.000000" stroke="none" 
	d="
M113.304962,138.011978 
	C113.247841,137.821823 113.441788,137.549484 113.864227,137.164993 
	C113.913818,137.345139 113.734924,137.637466 113.304962,138.011978 
z"/>
<path fill="#39B0BA" opacity="1.000000" stroke="none" 
	d="
M109.305130,142.005905 
	C109.245979,141.813599 109.438667,141.543900 109.857864,141.163116 
	C109.908569,141.344193 109.732773,141.636337 109.305130,142.005905 
z"/>
<path fill="#39B0BA" opacity="1.000000" stroke="none" 
	d="
M89.381355,121.424805 
	C95.717407,121.106644 102.391533,121.015022 109.527100,121.009171 
	C103.232178,121.280403 96.475800,121.465866 89.381355,121.424805 
z"/>
<path fill="#39B0BA" opacity="1.000000" stroke="none" 
	d="
M60.625942,127.612320 
	C61.400890,127.697731 61.959671,127.995560 62.518456,128.293381 
	C62.106037,128.700241 61.693623,129.107117 61.281208,129.513977 
	C60.990734,128.950897 60.700256,128.387817 60.625942,127.612320 
z"/>
<path fill="#39B0BA" opacity="1.000000" stroke="none" 
	d="
M87.220093,120.978546 
	C87.249298,120.838280 87.559364,120.703384 87.966019,120.770248 
	C87.875397,120.975983 87.688171,120.979950 87.220093,120.978546 
z"/>
<path fill="#3DB2BC" opacity="1.000000" stroke="none" 
	d="
M101.382767,103.043648 
	C101.382767,103.043648 101.636795,102.932495 101.960602,103.277473 
	C102.930817,103.762642 103.577225,103.902832 104.223640,104.043030 
	C106.349922,105.822304 108.476212,107.601578 110.602501,109.380859 
	C110.518341,110.050430 110.434174,110.720001 110.350014,111.389572 
	C107.653145,112.375969 104.983177,114.115967 102.254570,114.213356 
	C92.429008,114.564079 82.582375,114.453720 72.746559,114.314911 
	C69.442909,114.268280 66.026245,112.773262 66.265778,109.148643 
	C66.521881,105.273331 70.211319,104.108528 74.290192,103.535408 
	C83.669739,103.266594 92.526253,103.155121 101.382767,103.043648 
z"/>
<path fill="#4BB0B7" opacity="1.000000" stroke="none" 
	d="
M112.966934,92.360260 
	C117.033485,93.077988 121.254745,93.747734 120.988380,99.716125 
	C117.323891,103.255608 111.592392,103.977356 107.378448,101.597679 
	C109.186035,98.619171 110.996674,95.635635 112.966934,92.360260 
z"/>
<path fill="#3DB2BC" opacity="1.000000" stroke="none" 
	d="
M54.120564,99.407059 
	C54.002625,98.305618 54.015717,97.530960 53.987675,96.370804 
	C59.983166,95.887360 62.320370,96.899834 66.654228,101.874451 
	C64.332741,101.874451 62.508049,101.874451 60.271557,101.935211 
	C57.990368,101.241928 56.120983,100.487885 54.120564,99.407059 
z"/>
<path fill="#BAE9EF" opacity="1.000000" stroke="none" 
	d="
M101.118698,102.662811 
	C92.526253,103.155121 83.669739,103.266594 74.486099,103.208366 
	C74.580765,102.684204 75.004059,102.019104 75.424133,102.021133 
	C83.901192,102.062119 92.377876,102.179741 101.118698,102.662811 
z"/>
<path fill="#78C3C9" opacity="1.000000" stroke="none" 
	d="
M121.018318,108.501625 
	C120.786407,109.042358 120.533585,109.237976 120.151031,109.639771 
	C117.439842,110.432381 114.864326,111.026505 112.288818,111.620621 
	C112.155144,111.131226 112.021477,110.641830 111.887802,110.152435 
	C114.922356,109.484558 117.956909,108.816689 121.018318,108.501625 
z"/>
<path fill="#98DEE5" opacity="1.000000" stroke="none" 
	d="
M55.106987,117.545273 
	C55.082497,116.658859 55.187786,116.075439 55.490463,115.270393 
	C56.536163,115.376938 57.384472,115.705116 58.594315,116.109268 
	C59.289837,116.633949 59.623825,117.082649 59.957817,117.531357 
	C59.438404,117.677422 58.918991,117.823494 58.127533,117.994781 
	C56.982578,117.962761 56.109673,117.905525 55.106987,117.545273 
z"/>
<path fill="#BAE9EF" opacity="1.000000" stroke="none" 
	d="
M104.065079,103.723251 
	C103.577225,103.902832 102.930817,103.762642 102.071671,103.360451 
	C102.541466,103.200127 103.223984,103.301804 104.065079,103.723251 
z"/>
<path fill="#78C3C9" opacity="1.000000" stroke="none" 
	d="
M75.408844,117.051994 
	C85.627411,117.051346 95.399620,117.051346 105.171829,117.051346 
	C105.175613,117.481728 105.179405,117.912117 105.183189,118.342499 
	C94.053902,118.342499 82.924622,118.342499 71.795334,118.342499 
	C71.745117,118.109177 71.694908,117.875854 71.644691,117.642532 
	C72.750626,117.445900 73.856560,117.249275 75.408844,117.051994 
z"/>
</svg>